<svg data-v-0dd9719b="" version="1.0" xmlns="http://www.w3.org/2000/svg" xmlns:xlink="http://www.w3.org/1999/xlink" width="100%" height="100%" viewBox="0 0 340.000000 250.000000" preserveAspectRatio="xMidYMid meet" color-interpolation-filters="sRGB" style="margin: auto;"> <rect data-v-0dd9719b="" x="0" y="0" width="100%" height="100%" fill="#ffffff" fill-opacity="1" class="background"></rect> <rect data-v-0dd9719b="" x="0" y="0" width="100%" height="100%" fill="url(#watermark)" fill-opacity="1" class="watermarklayer"></rect> <g data-v-0dd9719b="" fill="#312B30" class="icon-text-wrapper icon-svg-group iconsvg" transform="translate(50.720794677792405,94.91425514221191)"><g class="iconsvg-imagesvg" transform="translate(0,0)"><g><rect fill="#312B30" fill-opacity="0" stroke-width="2" x="0" y="0" width="60" height="60.17148874291732" class="image-rect"></rect> <svg x="0" y="0" width="60" height="60.17148874291732" filtersec="colorsb631239719" class="image-svg-svg primary" style="overflow: visible;"><svg xmlns="http://www.w3.org/2000/svg" viewBox="0.0050809383392333984 0 481.48590087890625 482.8599853515625"><g><g fill-rule="evenodd"><path d="M197.37 0c130.77 0 256.19 108.09 280.14 241.43s-62.63 241.43-193.39 241.43c-51.9 0-103-17-147.17-45.93l309.4-164.31c18.64-9.9 23.67-30.08 10-40L192.6 42.17c-21.31-15.38-39.27-17-48.52 20.09L66.45 373.72C35.16 335.73 12.76 290.28 4 241.43-20 108.09 66.61 0 197.37 0z" fill="#63aebb"></path><path d="M181.59 101.07l207.54 127c10.79 6.6 10.79 20.06 0 26.66l-207.54 127c-16.77 10.26-29 11.37-29-13.4V114.47c-.02-24.77 12.23-23.66 29-13.4z" fill="#7a5d7e"></path></g></g></svg></svg> <!----></g></g> <g transform="translate(67,6.623846054077148)"><g data-gra="path-name" fill-rule="" class="tp-name iconsvg-namesvg" transform="translate(0,0)"><g transform="scale(1)"><g><path d="M15.45 2.36L15.45 2.36Q15.52 2.8 15.64 2.85 15.76 2.91 16.37 2.8L16.37 2.8Q16.68 2.73 16.85 2.7L16.85 2.7Q18.97 2.29 19.52 1.13L19.52 1.13Q19.82 0.51 19.88-0.36 19.93-1.23 19.96-5.84L19.96-5.84Q19.96-6.7 19.96-7.88 19.96-9.06 19.93-9.48 19.89-9.91 20-10.61 20.1-11.31 20.1-11.48 20.1-11.66 20.39-12.01 20.68-12.37 20.83-12.36 20.99-12.34 21.57-12.46 22.15-12.58 22.52-12.53 22.9-12.48 23.89-12.48 24.88-12.48 25.6-12.48L25.6-12.48Q29.57-12.48 30.23-12.53 30.9-12.58 30.93-12.95L30.93-12.95Q30.97-13.19 30.1-14.03 29.22-14.87 28.16-15.65L28.16-15.65Q27.41-16.17 27.22-16.12 27.04-16.06 26.42-15.18L26.42-15.18Q25.43-13.77 25.07-13.6 24.71-13.43 22.7-13.43L22.7-13.43Q20.54-13.43 20.23-13.71 19.93-13.98 19.96-15.89L19.96-15.89Q20-17.16 20.08-17.55 20.17-17.94 20.47-18.12L20.47-18.12Q21.16-18.53 19.58-19.04L19.58-19.04Q18.9-19.24 17.67-19.55L17.67-19.55Q16.44-19.86 16.37-19.76L16.37-19.76Q16.3-19.65 16.37-19.14L16.37-19.14Q16.58-17.23 16.61-15.59L16.61-15.59Q16.61-15.45 16.65-15.21L16.65-15.21Q16.68-13.95 16.41-13.71L16.41-13.71Q16.03-13.43 13.77-13.43L13.77-13.43Q13.36-13.43 13.16-13.43L13.16-13.43Q10.15-13.43 9.91-13.67L9.91-13.67Q9.78-13.81 9.88-14.29L9.88-14.29Q10.05-15 13.13-21.33L13.13-21.33Q13.19-21.43 13.26-21.6L13.26-21.6Q13.47-22.11 14.37-22.22 15.28-22.32 20.1-22.32L20.1-22.32Q22.05-22.32 23.21-22.32L23.21-22.32Q32.61-22.35 32.71-22.73L32.71-22.73Q32.92-23.28 30.25-25.33L30.25-25.33Q29.22-26.11 28.95-26.01 28.68-25.91 27.51-24.37L27.51-24.37Q27.45-24.27 27.31-24.06L27.31-24.06Q26.97-23.55 26.46-23.45L26.46-23.45Q25.87-23.31 22.15-23.31L22.15-23.31Q21.16-23.31 20.61-23.31L20.61-23.31Q19.93-23.31 18.76-23.31L18.76-23.31Q14.97-23.28 14.53-23.55L14.53-23.55Q14.18-23.75 14.56-24.61L14.56-24.61Q14.59-24.71 14.66-24.88L14.66-24.88Q14.83-25.22 14.9-25.4L14.9-25.4Q15.52-26.8 15.79-27.22 16.06-27.65 16.44-27.79L16.44-27.79Q17.33-28.03 15.93-28.71L15.93-28.71Q15.38-28.98 14.36-29.36L14.36-29.36Q12.99-29.87 12.83-29.82 12.68-29.77 12.44-28.85L12.44-28.85Q12-26.97 11.3-25.31 10.6-23.65 10.22-23.45L10.22-23.45Q9.91-23.31 7.25-23.31 4.58-23.31 2.63-23.48L2.63-23.48Q2.12-23.55 2.12-23.41L2.12-23.41Q2.12-23.28 2.46-22.66L2.46-22.66Q2.8-22.01 2.94-21.94 3.08-21.88 3.79-21.98L3.79-21.98Q5.88-22.29 7.72-22.29L7.72-22.29Q9.3-22.29 9.5-22.05L9.5-22.05Q9.84-21.7 8.82-19.58L8.82-19.58Q8.61-19.14 7.62-17.12L7.62-17.12Q6.67-15.24 6.37-14.78 6.08-14.32 5.5-13.98L5.5-13.98Q5.06-13.74 5.06-13.6L5.06-13.6Q5.06-13.43 6.39-12.44L6.39-12.44Q7.66-11.52 7.9-11.43 8.13-11.35 8.48-11.72L8.48-11.72Q9.06-12.3 9.5-12.37 9.95-12.44 12.71-12.48L12.71-12.48Q15.52-12.48 15.59-12.48L15.59-12.48Q16.37-12.37 16.58-11.55L16.58-11.55Q16.68-11.11 16.65-7.18L16.65-7.18Q16.65-6.9 16.65-6.63L16.65-6.63Q16.65-5.98 16.65-4.89L16.65-4.89Q16.68-1.67 16.32-1.16 15.96-0.65 13.77-0.82L13.77-0.82Q13.06-0.85 12.65-0.89L12.65-0.89Q11.89-0.92 11.89-0.85L11.89-0.85Q11.83-0.68 11.98-0.58 12.13-0.48 12.75-0.34L12.75-0.34Q15.14 0.24 15.45 2.36ZM1.85 1.2L1.85 1.2Q1.95 1.33 2.14 1.28 2.32 1.23 3.08 0.85L3.08 0.85Q7.69-1.57 11.42-6.05L11.42-6.05Q12.61-7.52 13.13-7.59L13.13-7.59Q14.01-7.72 13.09-8.41L13.09-8.41Q12.82-8.58 12.37-8.85L12.37-8.85Q11.69-9.19 10.6-9.95L10.6-9.95Q9.47-10.7 9.37-10.56L9.37-10.56Q9.37-10.53 9.33-10.42L9.33-10.42Q7.18-4.51 2.73 0L2.73 0Q1.81 1.09 1.85 1.2ZM30.39 0.27L30.39 0.27Q31.24 0.55 31.8 0.02 32.37-0.51 32.37-1.57L32.37-1.57Q32.33-3.45 30.57-5.4 28.81-7.35 25.81-8.82L25.81-8.82Q23.04-10.19 23-9.74L23-9.74Q23-9.54 23.72-8.78L23.72-8.78Q27.86-4.34 29.43-0.51L29.43-0.51Q29.67 0.03 30.39 0.27ZM37.05 2.84L37.05 2.84Q37.08 2.97 38.08 2.77L38.08 2.77Q43.44 1.57 46.23-0.8 49.01-3.18 49.97-7.42L49.97-7.42Q50.21-8.51 50.52-8.73 50.83-8.96 52.09-8.96L52.09-8.96Q52.26-8.96 52.57-8.96L52.57-8.96Q53.12-8.99 53.32-8.96 53.53-8.92 53.75-8.73 53.97-8.54 54-8.12 54.04-7.69 54.07-6.94 54.11-6.19 54.11-4.96L54.11-4.96Q54.11-4.24 54.11-3.83L54.11-3.83Q54.14 0.17 54.28 0.91 54.41 1.64 55.17 1.98L55.17 1.98Q56.05 2.43 60.52 2.38 64.98 2.32 66.45 1.88L66.45 1.88Q67.54 1.54 67.74 0.8 67.95 0.07 67.2-0.68L67.2-0.68Q66.82-1.06 66.74-1.45 66.65-1.85 66.62-3.38L66.62-3.38Q66.55-5.26 66.39-5.3 66.24-5.33 65.76-3.55L65.76-3.55Q65.15-1.5 64.91-1.2L64.91-1.2Q64.46-0.65 62.86-0.62L62.86-0.62Q62.65-0.62 60.94-0.62L60.94-0.62Q60.53-0.62 59.88-0.62L59.88-0.62Q57.8-0.58 57.46-0.96 57.11-1.33 57.15-3.62L57.15-3.62Q57.15-4.38 57.15-4.82L57.15-4.82Q57.15-5.33 57.15-6.07 57.15-6.8 57.11-7.04 57.08-7.28 57.18-7.74 57.29-8.2 57.27-8.29 57.25-8.37 57.54-8.61 57.83-8.85 57.93-8.84 58.04-8.82 58.58-8.9 59.13-8.99 59.44-8.97 59.75-8.96 60.65-8.96 61.56-8.96 62.17-8.96L62.17-8.96Q66.41-8.99 66.86-9.37L66.86-9.37Q67.27-9.71 65.73-10.9L65.73-10.9Q65.35-11.18 64.77-11.62L64.77-11.62Q63.85-12.3 63.64-12.27L63.64-12.27Q63.4-12.24 62.72-11.35L62.72-11.35Q62.65-11.28 62.62-11.21L62.62-11.21Q62.51-11.07 62.34-10.8L62.34-10.8Q61.93-10.15 60.98-10.05 60.02-9.95 54.55-9.95L54.55-9.95Q52.43-9.95 51.13-9.95L51.13-9.95Q40.47-9.95 38.32-10.12L38.32-10.12Q37.84-10.19 37.84-10.01L37.84-10.01Q37.84-9.91 38.14-9.23L38.14-9.23Q38.45-8.61 38.57-8.54 38.69-8.48 39.38-8.58L39.38-8.58Q46.55-9.64 46.55-8.1L46.55-8.1Q46.55-4.96 44.23-2.19 41.9 0.58 37.91 2.15L37.91 2.15Q37.29 2.39 37.14 2.53 36.98 2.67 37.05 2.84ZM43.96-13.6L43.96-13.6Q44.06-13.5 44.26-13.54L44.26-13.54Q46.79-14.01 54.89-14.01L54.89-14.01Q59.75-14.01 60.58-14.06 61.42-14.12 61.52-14.39L61.52-14.39Q61.73-14.87 59.68-16.41L59.68-16.41Q58.82-17.06 58.57-17.04 58.31-17.02 57.8-16.34L57.8-16.34Q57.7-16.2 57.49-15.93L57.49-15.93Q56.98-15.21 56.38-15.09 55.78-14.97 52.53-15L52.53-15Q51.37-15 50.65-15L50.65-15Q44.95-15 44.13-15.11L44.13-15.11Q43.31-15.18 43.27-15.11L43.27-15.11Q43.24-15.07 43.51-14.42 43.78-13.77 43.96-13.6ZM38.76-13.88L38.76-13.88Q39.92-13.33 40.98-14.36 42.04-15.38 42.31-17.4L42.31-17.4Q42.45-18.35 42.9-18.59L42.9-18.59Q43.27-18.76 52.81-18.7 62.34-18.63 62.51-18.42L62.51-18.42Q62.86-18.05 62.41-16.3L62.41-16.3Q62.04-14.8 62.24-14.7L62.24-14.7Q62.62-14.53 65.35-17.09L65.35-17.09Q66.27-17.98 67.06-18.18L67.06-18.18Q67.78-18.39 66.62-19.69L66.62-19.69Q66.41-19.93 66.14-20.2L66.14-20.2Q65.01-21.33 64.7-21.38 64.39-21.43 63.61-20.61L63.61-20.61Q62.86-19.86 62.55-19.76L62.55-19.76Q62.14-19.62 58.19-19.67 54.24-19.72 54.11-19.86L54.11-19.86Q53.76-20.17 53.8-20.83 53.83-21.5 54.21-21.81L54.21-21.81Q54.65-22.18 53.83-22.52L53.83-22.52Q53.42-22.7 52.57-22.97L52.57-22.97Q50.96-23.45 50.76-23.41 50.55-23.38 50.62-22.63L50.62-22.63Q50.83-20.64 50.65-20.27L50.65-20.27Q50.38-19.72 48.71-19.65L48.71-19.65Q48.26-19.65 46.45-19.65L46.45-19.65Q43-19.65 42.59-19.82L42.59-19.82Q42.21-19.96 42.04-20.71L42.04-20.71Q42.01-20.92 41.97-21.02L41.97-21.02Q41.84-21.6 41.67-21.81 41.49-22.01 41.36-21.82 41.22-21.64 41.19-21.09L41.19-21.09Q41.05-18.49 38.69-16.61L38.69-16.61Q37.91-16 37.94-15.11 37.97-14.22 38.76-13.88ZM45.6-21.4L45.6-21.4Q45.83-21.12 46.91-21.28 47.99-21.43 48.5-21.81L48.5-21.81Q48.71-21.98 48.67-22.9L48.67-22.9Q48.67-22.97 48.67-23.07L48.67-23.07Q48.6-24.13 48.88-24.34L48.88-24.34Q49.25-24.58 51.92-24.58L51.92-24.58 52.36-24.58Q55.37-24.58 55.71-24.4L55.71-24.4Q56.09-24.23 56.05-23.31L56.05-23.31Q56.02-22.93 56.02-22.87L56.02-22.87Q55.99-21.7 56.26-21.48 56.53-21.26 57.7-21.46L57.7-21.46Q58.79-21.64 59.1-21.93 59.4-22.22 59.34-23L59.34-23Q59.3-23.75 59.4-24.03L59.4-24.03Q59.54-24.37 59.78-24.44L59.78-24.44Q60.19-24.54 63.57-24.58L63.57-24.58Q66.55-24.61 67.04-24.64 67.54-24.68 67.71-24.95L67.71-24.95Q68.02-25.36 66.17-26.93L66.17-26.93Q65.49-27.51 65.28-27.7 65.08-27.89 64.75-27.86 64.43-27.82 64.29-27.6 64.16-27.38 63.64-26.69L63.64-26.69Q62.99-25.87 61.81-25.57 60.63-25.26 59.78-25.67L59.78-25.67Q59.3-25.94 59.32-26.75 59.34-27.55 59.81-27.92L59.81-27.92Q60.53-28.4 58.79-28.95L58.79-28.95Q58.14-29.16 57.08-29.43L57.08-29.43Q56.12-29.67 56.02-29.6 55.92-29.53 55.99-28.78L55.99-28.78Q56.23-26.08 55.64-25.74L55.64-25.74Q55.41-25.57 52.43-25.55 49.46-25.53 49.15-25.7L49.15-25.7Q48.64-25.94 48.65-26.73 48.67-27.51 49.22-27.96L49.22-27.96Q49.7-28.4 48.3-28.92L48.3-28.92Q47.58-29.16 46.31-29.46L46.31-29.46Q45.53-29.67 45.41-29.62 45.29-29.57 45.36-29.05L45.36-29.05Q45.73-25.98 44.98-25.67L44.98-25.67Q44.67-25.53 41.97-25.57 39.27-25.6 37.67-25.77L37.67-25.77Q37.05-25.81 37.02-25.7 36.98-25.6 37.32-24.92L37.32-24.92Q37.63-24.27 37.85-24.22 38.08-24.17 39.48-24.37L39.48-24.37Q41.02-24.54 42.72-24.54L42.72-24.54Q44.88-24.58 45.17-24.39 45.46-24.2 45.42-22.8L45.42-22.8Q45.42-21.57 45.6-21.4ZM85.96 2.53L85.96 2.53Q86.41 2.73 87.48 2.39 88.56 2.05 89.07 1.57L89.07 1.57Q89.28 1.4 89.31 1.2 89.35 0.99 89.28 0L89.28 0Q89.24-0.41 89.21-1.59 89.17-2.77 89.17-3.01L89.17-3.01Q89.07-5.54 89.09-10.99 89.11-16.44 89.24-16.65L89.24-16.65Q89.41-17.02 89.86-17.09 90.3-17.16 92.49-17.16L92.49-17.16Q94.88-17.16 94.95-17.16L94.95-17.16Q95.67-17.02 95.84-16.13L95.84-16.13Q95.91-15.69 95.91-11.11L95.91-11.11Q95.91-10.6 95.91-9.67L95.91-9.67Q95.91-6.05 95.7-5.47 95.5-4.89 94.2-4.96L94.2-4.96Q93.86-4.99 93.65-4.99L93.65-4.99Q91.84-5.06 91.52-5.04 91.19-5.02 91.19-4.89L91.19-4.89Q91.19-4.65 91.94-4.51L91.94-4.51Q93.11-4.27 93.87-3.5 94.64-2.73 94.64-1.78L94.64-1.78Q94.64-1.47 94.76-1.4 94.88-1.33 95.29-1.37L95.29-1.37Q98.03-1.67 98.68-3.01L98.68-3.01Q98.98-3.62 99.04-4.48 99.09-5.33 99.12-10.12L99.12-10.12Q99.16-15.86 99.26-16.27L99.26-16.27Q99.36-16.54 99.77-16.75L99.77-16.75Q99.84-16.78 99.87-16.82L99.87-16.82Q100.52-17.19 100.39-17.43L100.39-17.43Q100.21-17.74 99.24-18.54 98.27-19.35 97.58-19.72L97.58-19.72Q97.24-19.89 97.02-19.79 96.8-19.69 96.42-19.17L96.42-19.17Q95.74-18.32 95.4-18.22L95.4-18.22Q95.02-18.05 92.46-18.05L92.46-18.05Q92.25-18.05 91.88-18.05L91.88-18.05Q89.69-18.05 89.38-18.32L89.38-18.32Q89.11-18.56 89.11-19.86L89.11-19.86Q89.11-20.06 89.11-20.2L89.11-20.2Q89.11-21.36 89.19-21.74 89.28-22.11 89.58-22.29L89.58-22.29Q89.86-22.46 90.06-22.73L90.06-22.73Q90.41-23.07 91.17-23.12 91.94-23.17 96.66-23.17L96.66-23.17Q101.31-23.17 102.08-23.23 102.85-23.28 102.98-23.55L102.98-23.55Q103.12-23.79 102.3-24.61 101.48-25.43 100.15-26.42L100.15-26.42Q99.5-26.87 99.26-26.75 99.02-26.63 98.1-25.43L98.1-25.43Q97.45-24.54 97.24-24.4L97.24-24.4Q96.83-24.2 94.44-24.2L94.44-24.2Q93.75-24.2 93.28-24.2L93.28-24.2Q92.93-24.2 92.35-24.2L92.35-24.2Q89.69-24.2 89.35-24.44L89.35-24.44Q89.11-24.61 89.11-25.43L89.11-25.43Q89.11-25.63 89.11-25.77L89.11-25.77Q89.11-26.83 89.17-27.16 89.24-27.48 89.58-27.79L89.58-27.79Q90.1-28.27 89.55-28.57L89.55-28.57Q89.17-28.75 88.25-29.02L88.25-29.02Q85.83-29.67 85.62-29.43L85.62-29.43Q85.52-29.36 85.55-29.05L85.55-29.05Q86.17-24.68 85.35-24.27L85.35-24.27Q85.14-24.17 79.5-24.18 73.86-24.2 72.77-24.3L72.77-24.3Q71.98-24.37 71.9-24.28 71.81-24.2 72.15-23.55L72.15-23.55Q72.5-22.87 72.63-22.78 72.77-22.7 73.62-22.83L73.62-22.83Q75.54-23.11 80.56-23.14L80.56-23.14Q81.07-23.14 81.96-23.14L81.96-23.14Q84.94-23.17 85.38-22.93L85.38-22.93Q85.83-22.7 85.79-21.57L85.79-21.57Q85.79-21.46 85.79-21.29L85.79-21.29Q85.79-20.85 85.79-20.61L85.79-20.61Q85.79-20.41 85.79-20.03L85.79-20.03Q85.83-18.53 85.48-18.29 85.14-18.05 83.06-18.05L83.06-18.05Q82.61-18.05 82.34-18.05L82.34-18.05Q79.91-18.05 79.42-18.13 78.92-18.22 77.25-18.97L77.25-18.97Q75.78-19.62 75.64-19.52L75.64-19.52Q75.54-19.45 75.64-18.39L75.64-18.39Q75.88-15.79 75.9-11.07 75.91-6.36 75.67-2.94L75.67-2.94Q75.57-1.67 75.88-1.38 76.19-1.09 77.28-1.33 78.37-1.57 78.85-2.02 79.33-2.46 79.26-3.21L79.26-3.21Q79.09-6.53 79.06-11.43 79.02-16.34 79.19-16.68 79.37-17.02 79.83-17.09 80.29-17.16 82.44-17.16 84.59-17.16 85.04-17.09 85.48-17.02 85.65-16.68L85.65-16.68Q85.86-16.3 85.83-10.07 85.79-3.83 85.59-0.38L85.59-0.38Q85.45 1.61 85.5 1.98 85.55 2.36 85.96 2.53ZM111.36 2.8L111.36 2.8Q111.8 2.97 112.88 2.67 113.96 2.36 114.43 1.91L114.43 1.91Q114.64 1.71 114.64 1.38 114.64 1.06 114.54-1.67L114.54-1.67Q114.4-4.17 114.43-11.26 114.47-18.35 114.6-18.63 114.74-18.9 114.91-18.97L114.91-18.97Q115.15-19.04 115.24-19.16 115.32-19.28 115.22-19.41 115.12-19.55 114.88-19.62L114.88-19.62Q114.3-19.82 114.28-20.25 114.26-20.68 114.74-21.7L114.74-21.7Q116.04-24.44 116.55-25.81L116.55-25.81Q117.13-27.34 117.71-27.58L117.71-27.58Q118.43-27.89 117.44-28.37L117.44-28.37Q116.83-28.64 115.15-29.22L115.15-29.22Q113.96-29.63 113.73-29.65 113.51-29.67 113.44-29.43L113.44-29.43Q112.86-25.43 111.15-20.73 109.44-16.03 107.15-12.13L107.15-12.13Q106.91-11.72 106.81-11.52 106.71-11.31 106.67-11.16 106.64-11.01 106.69-10.97 106.74-10.94 106.88-10.9L106.88-10.9Q107.26-10.9 109.51-13.57L109.51-13.57Q109.96-14.08 110.2-14.32 110.43-14.56 110.62-14.68 110.81-14.8 110.9-14.75 110.98-14.7 111.08-14.53L111.08-14.53Q111.25-14.08 111.2-8.7 111.15-3.32 110.98-0.1L110.98-0.1Q110.84 1.88 110.9 2.26 110.95 2.63 111.36 2.8ZM115.8 1.23L115.8 1.23Q116.04 1.71 116.13 1.81 116.21 1.91 116.43 1.97 116.66 2.02 117 1.88L117 1.88Q118.4 1.64 119.85 1.61 121.3 1.57 128.58 1.54L128.58 1.54Q137.78 1.5 138.19 1.37L138.19 1.37Q138.29 1.33 138.36 1.09L138.36 1.09Q138.5 0.62 136.27-1.3L136.27-1.3Q135.21-2.19 134.98-2.15 134.74-2.12 133.88-0.85L133.88-0.85Q133.16 0.21 132.89 0.34L132.89 0.34Q132.58 0.51 130.57 0.55L130.57 0.55Q130.29 0.55 129.81 0.55L129.81 0.55Q128.24 0.58 128 0.21 127.76-0.17 127.76-2.46L127.76-2.46Q127.76-3.11 127.76-3.49L127.76-3.49Q127.76-6.39 127.8-6.56L127.8-6.56Q127.93-7.28 128.75-7.42L128.75-7.42Q128.99-7.45 132.38-7.49L132.38-7.49Q135.66-7.52 136.22-7.55 136.79-7.59 136.92-7.86L136.92-7.86Q137.16-8.37 134.84-10.29L134.84-10.29Q133.88-11.07 133.64-11.04L133.64-11.04Q133.4-11.01 132.72-10.01L132.72-10.01Q132.55-9.74 132.55-9.74L132.55-9.74Q131.9-8.78 131.59-8.65 131.28-8.51 129.92-8.48L129.92-8.48Q128.24-8.44 128-8.68 127.76-8.92 127.76-10.7L127.76-10.7Q127.76-12.03 127.85-12.46 127.93-12.89 128.21-13.13L128.21-13.13Q128.62-13.47 128.14-13.74L128.14-13.74Q127.87-13.88 127.18-14.15L127.18-14.15Q125.92-14.66 125.92-14.83L125.92-14.83Q125.92-15.18 131.25-15.18L131.25-15.18Q131.76-15.18 132.45-15.18L132.45-15.18Q136.34-15.18 137.06-15.23 137.78-15.28 137.92-15.59L137.92-15.59Q138.12-16.03 135.97-17.81L135.97-17.81Q134.94-18.7 134.67-18.65 134.39-18.59 133.54-17.43L133.54-17.43Q132.86-16.44 132.51-16.32 132.17-16.2 130.4-16.17L130.4-16.17Q130.12-16.17 129.68-16.17L129.68-16.17Q128.21-16.13 127.99-16.44 127.76-16.75 127.76-18.66L127.76-18.66Q127.76-19.21 127.76-19.55L127.76-19.55Q127.76-19.96 127.76-20.61L127.76-20.61Q127.73-22.42 128.09-22.71 128.45-23 130.7-22.97L130.7-22.97Q131.46-22.97 131.93-22.97L131.93-22.97Q135.93-22.97 136.31-23.31L136.31-23.31Q136.65-23.65 135.35-24.81L135.35-24.81Q135.15-24.99 134.87-25.22L134.87-25.22Q134.8-25.29 134.67-25.4L134.67-25.4Q133.47-26.49 133.16-26.46L133.16-26.46Q132.86-26.39 132.28-25.57L132.28-25.57Q132.21-25.43 132.14-25.36L132.14-25.36Q131.39-24.3 131.06-24.11 130.74-23.93 129.54-23.93L129.54-23.93Q128.28-23.93 128.02-24.22 127.76-24.51 127.76-25.84L127.76-25.84Q127.76-26.87 127.85-27.22 127.93-27.58 128.24-27.82L128.24-27.82Q128.72-28.27 127.35-28.75L127.35-28.75Q126.67-28.98 125.41-29.29L125.41-29.29Q125.3-29.33 125.13-29.36L125.13-29.36Q124.45-29.53 124.35-29.48 124.24-29.43 124.31-28.88L124.31-28.88Q124.31-28.85 124.31-28.81L124.31-28.81Q124.79-24.34 123.97-24.03L123.97-24.03Q123.7-23.89 121.24-23.96 118.77-24.03 117.89-24.2L117.89-24.2Q117.61-24.27 117.65-24.03L117.65-24.03Q117.65-23.86 117.89-23.34L117.89-23.34Q118.16-22.7 118.31-22.63 118.47-22.56 119.29-22.7L119.29-22.7Q121.06-22.97 122.67-22.97L122.67-22.97Q122.77-22.97 122.91-22.97L122.91-22.97Q124.11-22.97 124.31-22.61 124.52-22.25 124.52-20.06L124.52-20.06Q124.52-19.72 124.52-19.55L124.52-19.55Q124.52-17.29 124.47-16.87 124.41-16.44 124.11-16.27L124.11-16.27Q123.87-16.13 121.15-16.17 118.43-16.2 116.59-16.34L116.59-16.34Q116.11-16.41 116.09-16.3 116.07-16.2 116.38-15.55L116.38-15.55Q116.69-14.87 116.83-14.8 116.96-14.73 117.78-14.83L117.78-14.83Q124-15.69 124.17-14.56L124.17-14.56Q124.52-12.68 124.5-10.8 124.48-8.92 124.14-8.65L124.14-8.65Q123.97-8.48 121.73-8.48 119.49-8.48 117.95-8.61L117.95-8.61Q117.1-8.68 117.03-8.6 116.96-8.51 117.34-7.83L117.34-7.83Q117.65-7.18 117.87-7.13 118.09-7.08 119.32-7.28L119.32-7.28Q121.27-7.55 122.76-7.49 124.24-7.42 124.41-7.04L124.41-7.04Q124.55-6.77 124.53-3.47 124.52-0.17 124.38 0.07L124.38 0.07Q124.17 0.48 121.75 0.56 119.32 0.65 116.18 0.34L116.18 0.34Q115.49 0.27 115.46 0.38 115.42 0.48 115.8 1.23ZM143.69 2.73L143.69 2.73Q143.83 2.97 144.03 2.6L144.03 2.6Q144.1 2.5 144.14 2.39L144.14 2.39Q144.2 2.12 145.37 0.92L145.37 0.92Q145.67 0.62 146.43-0.22 147.18-1.06 147.45-1.33L147.45-1.33Q148.61-2.67 148.99-2.75 149.37-2.84 149.98-1.91L149.98-1.91Q150.73-0.75 151.4-0.12 152.07 0.51 152.95 0.99 153.84 1.47 155.43 1.67 157.02 1.88 158.97 1.97 160.92 2.05 164.4 2.05L164.4 2.05Q170.83 2.12 171.14 1.95L171.14 1.95Q171.21 1.91 171.24 1.67L171.24 1.67Q171.34 0.99 171.89 0.29 172.44-0.41 172.92-0.55L172.92-0.55Q173.6-0.75 173.33-1.03L173.33-1.03Q173.15-1.13 169.57-1.06L169.57-1.06Q158.7-0.89 155.33-1.25 151.96-1.61 150.25-3.14L150.25-3.14Q149.74-3.62 149.66-4.07 149.57-4.51 149.54-6.7L149.54-6.7Q149.5-9.67 149.71-10.08L149.71-10.08Q149.84-10.36 150.63-10.73L150.63-10.73Q151.42-11.07 150.66-11.89L150.66-11.89Q150.22-12.37 149.13-13.23L149.13-13.23Q148.51-13.71 148.32-13.84 148.13-13.98 147.84-13.96 147.55-13.95 147.45-13.79 147.35-13.64 146.94-13.09L146.94-13.09Q146.25-12.13 145.57-11.96 144.89-11.79 142.84-12L142.84-12Q141.91-12.07 141.83-12.01 141.74-11.96 142.02-11.31L142.02-11.31Q142.32-10.6 142.44-10.53 142.56-10.46 143.25-10.6L143.25-10.6Q144.55-10.94 145.11-11.01 145.67-11.07 146.07-10.65 146.46-10.22 146.53-9.47 146.6-8.72 146.6-6.97L146.6-6.97Q146.6-6.6 146.6-5.98L146.6-5.98Q146.63-3.66 146.34-3.16 146.05-2.67 144.34-1.95L144.34-1.95Q143.76-1.71 143.42-1.57L143.42-1.57Q142.08-1.03 141.98-0.92L141.98-0.92Q141.95-0.85 142.72 0.77 143.49 2.39 143.69 2.73ZM170.56-2.5L170.56-2.5Q171.75-1.98 172.32-2.67 172.88-3.35 172.44-4.75L172.44-4.75Q172.2-5.5 172.18-6 172.16-6.49 172.3-8.37L172.3-8.37Q172.4-10.8 172.27-10.83L172.27-10.83Q172.13-10.77 171.86-9.6L171.86-9.6Q171.65-8.96 171.45-8.13L171.45-8.13Q171.31-7.66 170.98-7.54 170.66-7.42 170.39-7.72L170.39-7.72Q169.63-8.58 169.21-12.63 168.78-16.68 168.88-21.77L168.88-21.77Q168.95-24.3 169.05-24.81 169.16-25.33 169.77-25.57L169.77-25.57Q170.35-25.81 170.35-25.99 170.35-26.18 169.7-26.83L169.7-26.83Q168.3-28.2 167.7-28.45 167.1-28.71 166.63-28.16L166.63-28.16Q166.52-28.03 166.32-27.79L166.32-27.79Q165.77-27.1 165.17-26.98 164.58-26.87 161.43-26.87L161.43-26.87Q160.51-26.87 159.96-26.87L159.96-26.87Q154.49-26.87 152.07-27.07L152.07-27.07Q151.59-27.1 151.55-27 151.52-26.9 151.89-26.22L151.89-26.22Q152.2-25.57 152.37-25.5 152.54-25.43 153.36-25.57L153.36-25.57Q155.62-25.87 161.57-25.87L161.57-25.87Q162.08-25.87 162.97-25.87L162.97-25.87Q165.22-25.91 165.58-25.5 165.94-25.09 165.94-22.59L165.94-22.59Q165.94-21.64 165.94-21.05L165.94-21.05Q165.94-20.82 165.94-20.34L165.94-20.34Q165.98-16.71 165.74-16.47L165.74-16.47Q165.57-16.27 164.78-17.06L164.78-17.06Q164.64-17.16 164.58-17.23L164.58-17.23Q164.51-17.29 164.4-17.4L164.4-17.4Q163.38-18.32 163.11-18.29L163.11-18.29Q162.87-18.22 162.29-17.36L162.29-17.36Q162.22-17.26 162.18-17.19L162.18-17.19Q161.12-15.55 160.3-16.13L160.3-16.13Q159.72-16.47 159.81-19.76 159.89-23.04 160.47-23.38L160.47-23.38Q161.12-23.75 160.13-24.2L160.13-24.2Q159.69-24.4 158.83-24.68L158.83-24.68Q156.92-25.26 156.75-25.09L156.75-25.09Q156.58-24.99 156.68-24.2L156.68-24.2Q156.88-22.35 156.97-19.72 157.06-17.09 156.95-16.58L156.95-16.58Q156.78-16.06 155.62-15.96 154.46-15.86 151.55-16.13L151.55-16.13Q151.11-16.17 151.09-16.05 151.07-15.93 151.42-15.24L151.42-15.24Q151.69-14.66 151.89-14.61 152.1-14.56 153.16-14.77L153.16-14.77Q156.27-15.31 156.85-14.53L156.85-14.53Q157.02-14.25 157-11.01 156.99-7.76 156.82-4.89L156.82-4.89Q156.68-2.94 156.88-2.7L156.88-2.7Q157.53-2.05 159.31-2.87L159.31-2.87Q159.93-3.18 160.01-3.4 160.1-3.62 160.06-4.61L160.06-4.61Q159.89-9.3 159.89-12.92L159.89-12.92Q159.89-13.02 159.89-13.19L159.89-13.19Q159.93-14.46 160.2-14.7L160.2-14.7Q160.54-14.97 162.8-14.97L162.8-14.97Q163.07-14.97 163.24-14.97L163.24-14.97Q165.53-15 165.81-14.87L165.81-14.87Q166.11-14.7 166.22-13.71L166.22-13.71Q166.22-13.33 166.25-13.13L166.25-13.13Q167.14-3.96 170.56-2.5ZM147.14-16.34L147.14-16.34Q148.54-15.76 149.04-16.9 149.54-18.05 148.65-19.35L148.65-19.35Q148.27-19.89 147.69-20.27L147.69-20.27Q147.01-20.75 145.73-21.12 144.44-21.5 143.59-21.55 142.73-21.6 142.6-21.33L142.6-21.33Q142.6-21.19 143.11-20.82L143.11-20.82Q145.26-19 146.49-17.09L146.49-17.09Q146.87-16.44 147.14-16.34ZM148.44-23.34L148.44-23.34Q149.5-23.07 150.1-23.91 150.7-24.75 150.22-25.84L150.22-25.84Q149.19-28.16 144.89-28.71L144.89-28.71Q144.07-28.81 144-28.64 143.93-28.47 144.55-27.96L144.55-27.96Q146.49-26.28 147.52-24.37L147.52-24.37Q147.86-23.72 148-23.57 148.13-23.41 148.44-23.34Z" transform="translate(-1.8483333587646484, 29.824464797973633)"></path></g> <!----> <!----> <!----> <!----> <!----> <!----> <!----></g></g> <g data-gra="path-slogan" fill-rule="" class="tp-slogan iconsvg-slogansvg" fill="#312b30" transform="translate(5,37.715675354003906)"><rect x="0" height="1" y="3.6050000190734863" width="25.314205169677734"></rect> <rect height="1" y="3.6050000190734863" width="25.314205169677734" x="136.24420547485352"></rect> <g transform="translate(28.314205169677734,0)"><g transform="scale(1)"><path d="M4.04 0L0.86 0L0.86-7.86L4.08-7.86Q7.26-7.69 7.39-4.04L7.39-4.04Q7.22-0.09 4.04 0L4.04 0ZM3.91-7.00L1.93-7.00L1.93-0.90L4.00-0.90Q6.23-1.03 6.32-3.95L6.32-3.95Q6.27-6.92 3.91-7.00L3.91-7.00ZM14.95-3.91L14.95-3.91Q14.78-7.00 12.20-7.18L12.20-7.18Q9.58-7.05 9.45-3.91L9.45-3.91Q9.58-0.86 12.20-0.73L12.20-0.73Q14.78-0.90 14.95-3.91ZM16.03-3.91L16.03-3.91Q15.77 0 12.20 0.13L12.20 0.13Q8.59 0 8.34-3.91L8.34-3.91Q8.55-7.99 12.20-8.08L12.20-8.08Q15.77-7.95 16.03-3.91ZM18.56-7.86L22.52-1.50L22.52-7.86L23.55-7.86L23.55 0L22.34 0L18.35-6.36L18.30-6.36L18.30 0L17.27 0L17.27-7.86L18.56-7.86ZM31.07-3.31L28.66-3.31L28.66-4.21L32.10-4.21L32.10 0L31.41 0L31.15-0.99Q30.25 0.09 28.57 0.13L28.57 0.13Q26.98 0.13 26.13-0.69L26.13-0.69Q24.84-1.89 24.88-4.00L24.88-4.00Q25.18-7.91 28.62-8.08L28.62-8.08Q31.54-7.91 31.97-5.50L31.97-5.50L30.94-5.50Q30.51-7.13 28.57-7.18L28.57-7.18Q26.13-7.00 26.00-3.95L26.00-3.95Q26.00-0.69 28.62-0.69L28.62-0.69Q29.56-0.69 30.25-1.20L30.25-1.20Q31.11-1.89 31.07-3.31L31.07-3.31ZM39.62-3.31L37.21-3.31L37.21-4.21L40.65-4.21L40.65 0L39.96 0L39.70-0.99Q38.80 0.09 37.13 0.13L37.13 0.13Q35.54 0.13 34.68-0.69L34.68-0.69Q33.39-1.89 33.43-4.00L33.43-4.00Q33.73-7.91 37.17-8.08L37.17-8.08Q40.09-7.91 40.52-5.50L40.52-5.50L39.49-5.50Q39.06-7.13 37.13-7.18L37.13-7.18Q34.68-7.00 34.55-3.95L34.55-3.95Q34.55-0.69 37.17-0.69L37.17-0.69Q38.11-0.69 38.80-1.20L38.80-1.20Q39.66-1.89 39.62-3.31L39.62-3.31ZM47.48-2.92L47.48-7.86L48.55-7.86L48.55-2.79Q48.43 0.04 45.33 0.13L45.33 0.13Q42.45 0.04 42.32-2.62L42.32-2.62L42.32-7.86L43.40-7.86L43.40-2.92Q43.44-0.77 45.38-0.73L45.38-0.73Q47.48-0.77 47.48-2.92L47.48-2.92ZM55.39 0L54.61-2.28L51.43-2.28L50.62 0L49.54 0L52.51-7.86L53.71-7.86L56.55 0L55.39 0ZM53.02-6.70L51.78-3.22L54.23-3.22L53.07-6.70L53.02-6.70ZM58.78-7.86L62.73-1.50L62.73-7.86L63.77-7.86L63.77 0L62.56 0L58.57-6.36L58.52-6.36L58.52 0L57.49 0L57.49-7.86L58.78-7.86ZM67.80-1.76L67.80-2.54L68.79-2.54L68.79-1.98Q68.79-0.69 70.00-0.69L70.00-0.69Q71.24-0.69 71.24-2.06L71.24-2.06L71.24-7.86L72.32-7.86L72.32-2.11Q72.27 0.09 70.04 0.13L70.04 0.13Q67.93 0.09 67.80-1.76L67.80-1.76ZM74.12-7.86L75.20-7.86L75.20 0L74.12 0L74.12-7.86ZM82.20 0L81.43-2.28L78.25-2.28L77.43 0L76.36 0L79.32-7.86L80.52-7.86L83.36 0L82.20 0ZM79.84-6.70L78.59-3.22L81.04-3.22L79.88-6.70L79.84-6.70ZM90.49-7.86L87.83-4.04L90.62 0L89.29 0L87.14-3.22L84.99 0L83.70 0L86.54-4.04L83.88-7.86L85.21-7.86L87.18-4.86L89.20-7.86L90.49-7.86ZM96.81-2.92L96.81-7.86L97.88-7.86L97.88-2.79Q97.75 0.04 94.66 0.13L94.66 0.13Q91.78 0.04 91.65-2.62L91.65-2.62L91.65-7.86L92.73-7.86L92.73-2.92Q92.77-0.77 94.70-0.73L94.70-0.73Q96.81-0.77 96.81-2.92L96.81-2.92ZM100.80-7.86L104.76-1.50L104.76-7.86L105.79-7.86L105.79 0L104.59 0L100.59-6.36L100.55-6.36L100.55 0L99.52 0L99.52-7.86L100.80-7.86Z" transform="translate(-0.859375, 8.078125)"></path></g></g></g></g></g><defs v-gra="od"></defs></svg>